<?xml version="1.0" ?><!DOCTYPE svg  PUBLIC '-//W3C//DTD SVG 1.1//EN'  'http://www.w3.org/Graphics/SVG/1.1/DTD/svg11.dtd'><svg enable-background="new 0 0 512 512" height="512px" id="Layer_1" version="1.1" viewBox="0 0 512 512" width="512px" xml:space="preserve" xmlns="http://www.w3.org/2000/svg" xmlns:xlink="http://www.w3.org/1999/xlink"><path d="M0,256C0,40.15,40.15,0,256,0c215.451,0,256,39.281,256,256c0,215.029-40.549,256-256,256  C39.492,512,0,471.722,0,256z" fill="#29C5F4"/><path d="M169,3.288v505.437C42.902,497.027,7.053,450.149,1,308.666l0-105.053C7.087,61.905,43.216,15.005,169,3.288  z" fill="#2EBCEE"/><path d="M256,0c194.215,0,246.305,31.926,254.687,196.963L35.301,153.737L43.46,50.836  C79.875,10.717,144.492,0,256,0z" fill="#2EBCEE"/><path d="M248.753,511.983c-1.358-0.006-2.712-0.013-4.056-0.023c-0.545-0.004-1.087-0.008-1.629-0.013  c-1.402-0.011-2.796-0.024-4.182-0.04c-0.428-0.005-0.857-0.009-1.284-0.014c-1.706-0.02-3.403-0.043-5.086-0.07  c-0.086-0.001-0.172-0.002-0.258-0.004c-5.698-0.091-11.261-0.217-16.692-0.382c-0.041-0.001-0.082-0.003-0.122-0.004  c-1.799-0.055-3.585-0.114-5.356-0.177L13.279,109.809C31.112,44.698,70.194,16.203,149.329,5.511l243.807,495.333  c-1.066,0.251-2.142,0.497-3.226,0.739c-0.298,0.066-0.602,0.13-0.901,0.196c-0.788,0.173-1.577,0.345-2.375,0.513  c-0.393,0.083-0.792,0.162-1.188,0.244c-0.713,0.147-1.427,0.294-2.147,0.437c-0.439,0.087-0.883,0.171-1.324,0.257  c-0.686,0.133-1.372,0.266-2.065,0.395c-0.468,0.087-0.941,0.172-1.413,0.258c-0.676,0.123-1.353,0.246-2.036,0.366  c-0.487,0.086-0.979,0.169-1.469,0.253c-0.678,0.116-1.358,0.231-2.043,0.344c-0.5,0.082-1.003,0.163-1.506,0.244  c-0.683,0.11-1.369,0.218-2.058,0.325c-0.515,0.08-1.032,0.158-1.551,0.236c-0.685,0.103-1.372,0.205-2.063,0.305  c-0.532,0.077-1.066,0.154-1.603,0.229c-0.693,0.098-1.389,0.194-2.089,0.288c-0.535,0.073-1.07,0.145-1.608,0.216  c-0.714,0.094-1.432,0.186-2.152,0.277c-0.537,0.068-1.074,0.136-1.615,0.203c-0.728,0.089-1.462,0.177-2.197,0.263  c-0.54,0.064-1.08,0.128-1.624,0.19c-0.756,0.086-1.519,0.17-2.282,0.254c-0.531,0.058-1.061,0.117-1.596,0.174  c-0.793,0.084-1.593,0.165-2.393,0.247c-0.514,0.052-1.026,0.106-1.543,0.157c-0.852,0.084-1.712,0.164-2.571,0.245  c-0.476,0.045-0.948,0.091-1.427,0.134c-0.99,0.09-1.99,0.177-2.991,0.263c-0.355,0.031-0.706,0.063-1.063,0.093  c-2.73,0.229-5.502,0.443-8.314,0.642c-0.464,0.033-0.934,0.063-1.399,0.095c-0.944,0.065-1.888,0.13-2.842,0.191  c-0.55,0.035-1.107,0.068-1.661,0.103c-0.881,0.055-1.762,0.11-2.651,0.162c-0.594,0.035-1.194,0.067-1.792,0.101  c-0.855,0.048-1.709,0.096-2.571,0.141c-0.627,0.033-1.259,0.064-1.89,0.096c-0.847,0.043-1.695,0.085-2.549,0.126  c-0.645,0.03-1.295,0.059-1.944,0.089c-0.847,0.038-1.694,0.076-2.548,0.112c-0.668,0.028-1.34,0.055-2.013,0.082  c-0.848,0.034-1.697,0.067-2.551,0.098c-0.682,0.025-1.367,0.05-2.053,0.074c-0.849,0.03-1.701,0.058-2.557,0.086  c-0.707,0.023-1.416,0.045-2.128,0.067c-0.851,0.026-1.705,0.05-2.563,0.074c-0.714,0.02-1.429,0.039-2.147,0.058  c-0.878,0.023-1.761,0.044-2.645,0.065c-0.707,0.017-1.414,0.033-2.126,0.048c-0.904,0.019-1.815,0.037-2.726,0.055  c-0.709,0.014-1.417,0.028-2.129,0.04c-0.922,0.016-1.851,0.03-2.779,0.045c-0.711,0.011-1.42,0.022-2.135,0.032  c-0.954,0.013-1.915,0.024-2.877,0.035c-0.701,0.008-1.399,0.017-2.104,0.024c-1.023,0.01-2.055,0.018-3.086,0.026  c-0.649,0.005-1.294,0.011-1.947,0.015c-1.149,0.007-2.309,0.012-3.468,0.017c-0.55,0.002-1.095,0.006-1.648,0.008  C259.462,511.997,257.737,512,256,512c-1.889,0-3.76-0.004-5.622-0.01C249.834,511.988,249.295,511.985,248.753,511.983z" fill="#51C8EC"/><path d="M510.724,197.703l-208.19,313.512C288.01,511.758,272.521,512,256,512c-21.71,0-41.635-0.406-59.924-1.353  L485.397,74.96C500.729,104.065,508.037,143.818,510.724,197.703z" fill="#45C7EF"/><path d="M0.443,292.372l454.764,180.791c-30.804,24.357-77.159,34.691-145.896,37.774L10.693,392.222  C4.519,365.139,1.491,332.236,0.443,292.372z" fill="#29C5F4"/><path d="M509.285,175.526C511.214,199.169,512,225.867,512,256c0,2.863-0.009,5.688-0.023,8.49L0.109,274.688  C0.036,268.608,0,262.384,0,256c0-25.912,0.581-49.284,1.973-70.367L509.285,175.526z" fill="#51C8EC"/><path d="M248.392,0.019L29.115,441.689c-18.651-32.11-26.377-77.958-28.482-142.773L146.075,5.965  C174.569,1.88,208.371,0.203,248.392,0.019z" fill="#29C5F4"/><path d="M354.109,4.392L243.014,511.947c-34.543-0.28-64.346-1.731-90.021-4.96L263.958,0.02  C298.432,0.184,328.288,1.441,354.109,4.392z" fill="#45C7EF"/><path d="M26.63,75.082C41.187,47.5,62.983,29.434,94.947,17.953L479.571,446.27  c-16.21,25.031-39.827,41.17-73.652,51.187L26.63,75.082z" fill="#2EBCEE"/><path d="M158.708,4.348C186.312,1.214,218.502,0,256,0c170.466,0,231.439,24.595,249.471,142.204L158.708,4.348z" fill="#51C8EC"/><path d="M0.001,256.912C0.001,256.607,0,256.306,0,256c0-35.571,1.072-66.372,3.835-93.013l442.44-130.555  c25.938,16.799,42.329,41.549,52.252,77.375L0.001,256.912z" fill="#45C7EF"/><g><path d="M407.577,173.497c-13.758,13.462-14.493,14.931-14.493,26.192c0,17.38-8.353,53.606-16.706,73.432   c-15.478,37.206-48.642,75.636-81.808,94.972c-46.677,27.169-108.828,34.024-161.157,18.113C115.971,380.819,86,367.112,86,364.664   c0-0.733,9.091-1.713,20.144-1.96c23.093-0.489,46.186-6.852,65.839-18.113l13.267-7.832l-15.231-5.142   c-21.62-7.343-41.026-24.232-45.939-40.143c-1.473-5.142-0.982-5.386,12.775-5.386l14.249-0.244l-12.038-5.63   c-14.249-7.099-27.268-19.093-33.657-31.331c-4.667-8.812-10.564-31.087-8.844-32.8c0.491-0.736,5.651,0.733,11.547,2.691   c16.951,6.119,19.162,4.65,9.335-5.63c-18.424-18.604-24.075-46.262-15.231-72.454l4.178-11.747l16.213,15.909   c33.166,32.066,72.226,51.157,116.937,56.787l12.282,1.469l-0.738-11.994c-2.211-31.087,17.198-59.48,47.906-70.497   c11.3-3.915,30.462-4.406,42.99-0.978c4.913,1.469,14.249,6.364,20.882,10.77l12.038,8.079l13.266-4.162   c7.371-2.202,17.198-5.875,21.62-8.323c4.176-2.202,7.862-3.426,7.862-2.693c0,4.162-9.089,18.36-16.704,26.192   c-10.318,11.016-7.371,11.994,13.511,4.65c12.529-4.162,12.775-4.162,10.318,0.489   C423.299,157.097,415.683,165.665,407.577,173.497z" fill="#FFFFFF"/></g><g opacity="0.5"><path d="M400.948,149.502c-10.318,11.016-7.371,11.994,13.511,4.65c12.529-4.162,12.775-4.162,10.318,0.489   c-1.478,2.457-9.093,11.024-17.2,18.857c-13.758,13.463-14.493,14.931-14.493,26.192c0,17.38-8.353,53.606-16.707,73.432   c-15.478,37.206-48.642,75.636-81.808,94.972c-46.677,27.169-108.828,34.024-161.157,18.113   c-14.315-4.42-37.056-14.441-44.755-19.247l144.88,144.88C240.808,511.947,248.288,512,256,512c215.451,0,256-40.971,256-256   c0-13.521-0.158-26.351-0.506-38.525l-93.861-93.861C417.234,128.12,408.39,141.848,400.948,149.502z" fill="#0986AA"/><path d="M121.889,268.781l17.268,17.268l11.946-0.205l-12.038-5.63C132.973,277.178,127.11,273.243,121.889,268.781   z" fill="#0986AA"/><path d="M171.983,344.591l13.266-7.832l-15.231-5.142c-9.38-3.186-18.341-8.17-25.884-14.09l27.343,27.343   C171.645,344.775,171.816,344.687,171.983,344.591z" fill="#0986AA"/></g></svg>